<svg width="200" height="214" viewBox="0 0 200 214" fill="none" xmlns="http://www.w3.org/2000/svg">
<mask id="mask0_239_12506" style="mask-type:luminance" maskUnits="userSpaceOnUse" x="0" y="0" width="200" height="214">
<path d="M0 0.97168H200V213.028H0V0.97168Z" fill="white"/>
</mask>
<g mask="url(#mask0_239_12506)">
<path d="M198.831 140.206C197.562 135.524 195.468 128.133 192.498 119.339C192.326 118.813 192.021 118.336 191.584 118.026C184.818 97.2925 168.091 52.1518 146.132 35.9672C144.603 34.3936 143.03 32.9032 141.417 31.4182C140.326 30.4541 114.522 8.31871 84.3971 1.10462C83.9151 0.971638 83.433 0.971638 82.9953 1.10462C82.214 1.27638 63.392 6.09132 55.1418 29.0135C53.4408 33.6456 53.2635 38.721 54.7484 43.4916C57.2805 52.6339 64.4835 59.8036 73.6092 62.297C76.7564 63.1281 80.1141 62.2582 82.4745 60.0253C85.0509 57.5762 88.8907 57.0055 92.0378 58.6235C96.6201 60.33 101.729 60.197 106.228 58.2744C107.275 57.7923 108.45 57.8367 109.458 58.4074C115.697 61.5989 122.64 68.3364 120.196 82.1607C120.152 82.2881 120.152 82.4211 120.152 82.5984L119.016 114.181C110.023 111.948 87.4501 108.319 74.263 123.495C67.2373 120.392 48.5483 113.699 30.8676 120.697C18.0296 125.728 8.3776 136.748 2.13868 153.504C2.09436 153.681 2.05003 153.809 2.00571 153.986C1.74529 155.255 -3.71238 185.435 18.2901 203.459C26.0194 209.671 35.6272 212.995 45.4897 212.906C48.1105 212.906 50.687 212.69 53.2635 212.253C58.3721 211.46 63.4363 210.236 68.3732 208.662C70.9496 207.787 73.7422 207.659 76.4073 208.18C91.9492 211.333 133.732 213.738 186.386 167.849C189.617 164.613 192.631 161.161 195.379 157.526C199.224 152.584 200.488 146.201 198.831 140.206ZM190.625 153.853C188.048 157.177 185.25 160.369 182.325 163.389C131.898 207.393 92.3426 205.21 77.6706 202.235C73.9583 201.487 70.1185 201.709 66.4948 202.889C61.8628 204.379 57.1088 205.515 52.3049 206.258C41.65 208.225 30.646 205.515 22.1354 198.777C3.92835 183.862 7.5077 158.097 7.94542 155.382C13.5749 140.466 22.0024 130.715 33.095 126.337C47.9388 120.475 63.7854 125.639 70.7723 128.615C66.7553 135.746 64.7052 143.791 64.8326 152.019C64.7883 153.681 66.1014 155.077 67.7581 155.122H67.8468C69.4647 155.122 70.8167 153.809 70.861 152.191C70.6837 144.012 72.9997 136.006 77.4545 129.18C77.5376 129.052 77.6263 128.964 77.7149 128.831C91.1181 111.25 120.634 120.913 120.939 121.002C121.199 121.09 121.509 121.135 121.814 121.179C123.471 121.223 124.867 119.954 124.956 118.248L126.224 82.9918C129.455 64.0922 117.531 55.7367 112.251 53.0273C109.502 51.5368 106.228 51.4925 103.43 52.8943C100.504 54.0301 97.2739 54.0301 94.304 52.9829C88.9793 50.4453 82.6462 51.4537 78.4131 55.5206C77.5819 56.3517 76.4073 56.7008 75.2714 56.4404C68.1072 54.4235 62.4778 48.8274 60.5108 41.6077C59.4636 38.1558 59.5522 34.4324 60.8155 31.0248C64.3118 19.9543 72.7781 11.1223 83.7378 7.18285C112.118 14.2252 137.223 35.7456 137.445 35.9229C142.027 40.0785 146.26 44.6274 150.061 49.4812C150.238 49.7028 150.499 49.9189 150.715 50.0962C153.989 54.2518 157.702 59.4102 161.586 65.7101C161.674 66.0149 161.763 66.2808 161.935 66.5856C163.42 69.0789 164.905 71.5723 166.301 74.1099C166.478 74.4147 166.739 74.725 166.999 74.941C169.753 79.9277 172.59 85.4852 175.343 91.652C175.343 92.0898 175.427 92.5275 175.648 92.9209C176.912 95.719 178.092 98.4284 179.183 101.143C179.361 101.537 179.577 101.842 179.837 102.152C182.153 107.881 184.425 114.048 186.608 120.652C186.647 120.869 186.691 121.046 186.735 121.268C189.661 129.928 191.716 137.186 192.98 141.779C194.116 145.979 193.24 150.44 190.625 153.853Z" fill="#312C51"/>
</g>
<path d="M139.583 165.749C138.098 164.962 136.264 165.489 135.478 166.979C132.425 172.226 128.275 176.686 123.255 180.144C112.118 187.796 98.7145 188.804 83.433 183.164C81.865 182.593 80.1141 183.38 79.5489 184.953C78.9782 186.527 79.765 188.278 81.3386 188.848C87.8435 191.386 94.7417 192.699 101.729 192.782C128.624 192.782 140.719 170.037 140.847 169.777C141.589 168.287 141.024 166.541 139.583 165.749Z" fill="#312C51"/>
<mask id="mask1_239_12506" style="mask-type:luminance" maskUnits="userSpaceOnUse" x="0" y="0" width="200" height="214">
<path d="M0 0.97168H200V213.028H0V0.97168Z" fill="white"/>
</mask>
<g mask="url(#mask1_239_12506)">
<path d="M198.831 140.206C197.562 135.524 195.468 128.133 192.498 119.339C192.326 118.813 192.021 118.336 191.584 118.026C184.818 97.2925 168.091 52.1518 146.132 35.9672C144.603 34.3936 143.03 32.9032 141.417 31.4182C140.326 30.4541 114.522 8.31871 84.3971 1.10462C83.9151 0.971638 83.433 0.971638 82.9953 1.10462C82.214 1.27638 63.392 6.09132 55.1418 29.0135C53.4408 33.6456 53.2635 38.721 54.7484 43.4916C57.2805 52.6339 64.4835 59.8036 73.6092 62.297C76.7564 63.1281 80.1141 62.2582 82.4745 60.0253C85.0509 57.5762 88.8907 57.0055 92.0378 58.6235C96.6201 60.33 101.729 60.197 106.228 58.2744C107.275 57.7923 108.45 57.8367 109.458 58.4074C115.697 61.5989 122.64 68.3364 120.196 82.1607C120.152 82.2881 120.152 82.4211 120.152 82.5984L119.016 114.181C110.023 111.948 87.4501 108.319 74.263 123.495C67.2373 120.392 48.5483 113.699 30.8676 120.697C18.0296 125.728 8.3776 136.748 2.13868 153.504C2.09436 153.681 2.05003 153.809 2.00571 153.986C1.74529 155.255 -3.71238 185.435 18.2901 203.459C26.0194 209.671 35.6272 212.995 45.4897 212.906C48.1105 212.906 50.687 212.69 53.2635 212.253C58.3721 211.46 63.4363 210.236 68.3732 208.662C70.9496 207.787 73.7422 207.659 76.4073 208.18C91.9492 211.333 133.732 213.738 186.386 167.849C189.617 164.613 192.631 161.161 195.379 157.526C199.224 152.584 200.488 146.201 198.831 140.206ZM190.625 153.853C188.048 157.177 185.25 160.369 182.325 163.389C131.898 207.393 92.3426 205.21 77.6706 202.235C73.9583 201.487 70.1185 201.709 66.4948 202.889C61.8628 204.379 57.1088 205.515 52.3049 206.258C41.65 208.225 30.646 205.515 22.1354 198.777C3.92835 183.862 7.5077 158.097 7.94542 155.382C13.5749 140.466 22.0024 130.715 33.095 126.337C47.9388 120.475 63.7854 125.639 70.7723 128.615C66.7553 135.746 64.7052 143.791 64.8326 152.019C64.7883 153.681 66.1014 155.077 67.7581 155.122H67.8468C69.4647 155.122 70.8167 153.809 70.861 152.191C70.6837 144.012 72.9997 136.006 77.4545 129.18C77.5376 129.052 77.6263 128.964 77.7149 128.831C91.1181 111.25 120.634 120.913 120.939 121.002C121.199 121.09 121.509 121.135 121.814 121.179C123.471 121.223 124.867 119.954 124.956 118.248L126.224 82.9918C129.455 64.0922 117.531 55.7367 112.251 53.0273C109.502 51.5368 106.228 51.4925 103.43 52.8943C100.504 54.0301 97.2739 54.0301 94.304 52.9829C88.9793 50.4453 82.6462 51.4537 78.4131 55.5206C77.5819 56.3517 76.4073 56.7008 75.2714 56.4404C68.1072 54.4235 62.4778 48.8274 60.5108 41.6077C59.4636 38.1558 59.5522 34.4324 60.8155 31.0248C64.3118 19.9543 72.7781 11.1223 83.7378 7.18285C112.118 14.2252 137.223 35.7456 137.445 35.9229C142.027 40.0785 146.26 44.6274 150.061 49.4812C150.238 49.7028 150.499 49.9189 150.715 50.0962C153.989 54.2518 157.702 59.4102 161.586 65.7101C161.674 66.0149 161.763 66.2808 161.935 66.5856C163.42 69.0789 164.905 71.5723 166.301 74.1099C166.478 74.4147 166.739 74.725 166.999 74.941C169.753 79.9277 172.59 85.4852 175.343 91.652C175.343 92.0898 175.427 92.5275 175.648 92.9209C176.912 95.719 178.092 98.4284 179.183 101.143C179.361 101.537 179.577 101.842 179.837 102.152C182.153 107.881 184.425 114.048 186.608 120.652C186.647 120.869 186.691 121.046 186.735 121.268C189.661 129.928 191.716 137.186 192.98 141.779C194.116 145.979 193.24 150.44 190.625 153.853Z" fill="#312C51"/>
</g>
<path d="M139.583 165.749C138.098 164.962 136.264 165.489 135.478 166.979C132.425 172.226 128.275 176.686 123.255 180.144C112.118 187.796 98.7145 188.804 83.433 183.164C81.865 182.593 80.1141 183.38 79.5489 184.953C78.9782 186.527 79.765 188.278 81.3386 188.848C87.8435 191.386 94.7417 192.699 101.729 192.782C128.624 192.782 140.719 170.037 140.847 169.777C141.589 168.287 141.024 166.541 139.583 165.749Z" fill="#312C51"/>
</svg>
